<?xml version="1.0" encoding="UTF-8"?>
<!DOCTYPE svg PUBLIC "-//W3C//DTD SVG 1.1//EN" "http://www.w3.org/Graphics/SVG/1.1/DTD/svg11.dtd">
<!-- Creator: CorelDRAW 2017 -->
<svg xmlns="http://www.w3.org/2000/svg" xml:space="preserve" width="88.9mm" height="50.8mm" version="1.1" style="shape-rendering:geometricPrecision; text-rendering:geometricPrecision; image-rendering:optimizeQuality; fill-rule:evenodd; clip-rule:evenodd"
viewBox="0 0 8890 5080"
 xmlns:xlink="http://www.w3.org/1999/xlink">
 <defs>
  <style type="text/css">
   <![CDATA[
    .str0 {stroke:red;stroke-width:20;stroke-miterlimit:22.9256}
    .fil0 {fill:pink}
   ]]>
  </style>
 </defs>
 <g id="Слой_x0020_1">
  <metadata id="CorelCorpID_0Corel-Layer"/>
  <path class="fil0 str0" d="M3410 1673.03c138.57,350.75 278.6,206.99 378.07,316.53 90.69,99.88 136.69,230.76 175.1,373.22 36.9,165.71 81.44,362.59 198.45,566.19 137.72,239.64 350.96,476.79 586.31,729.36 -215.77,-68.68 -429.69,-170.17 -646.94,-275.82 -213.23,-103.69 -430.79,-174.08 -645.81,-203.15 -215.77,30.53 -433.09,102.14 -646.94,205.69 -216.98,105.06 -431.17,205.69 -646.56,273.65 276.02,-252.21 528.58,-485.79 691.37,-728.64 134.13,-200.1 170.21,-400.48 185.65,-565.83 4.9,-142.45 6.5,-272.22 62.13,-373.94 59.82,-109.38 178.5,-203.15 309.17,-317.26zm1151.53 -198.79c-137.82,248.58 -289.91,483.68 -406.69,720.28 -107.13,217.06 -152.13,435.73 -161.92,639.24 22.59,194.42 65.07,378.29 91.13,555.29 24.43,165.94 12.05,324.88 -20.34,475.7 -215.39,-226.04 -417.22,-412.87 -615.31,-522.95 -157.85,-87.72 -296.73,-128.28 -398.4,-179.16 -75.32,-63.23 -132.86,-150.49 -188.29,-264.92 -69.21,-142.86 -176.23,-306.72 -335.89,-481.52 95.27,-84.67 190.61,-163.25 301.25,-196.6 117.22,-35.33 256.07,-33.44 410.08,-41.43 173.6,-24.35 373.05,-75.49 587.29,-390.07 238.47,-134.15 20.87,-322.34 744.09,-513.86zm-70.04 941.96c-149.12,174.44 -250.96,340.42 -334.39,480.43 -69.5,116.65 -155.9,200.6 -259.45,263.47 -131.8,50.88 -300.28,91.34 -484.64,182.79 -220.21,109.23 -436.82,298.73 -657.11,525.13 -21.09,-151.18 -1.49,-311.35 65.15,-476.07 72.39,-178.93 155.89,-361.95 207.86,-557.1 -3.01,-203.51 -62.66,-424.67 -205.6,-639.6 -159.08,-239.19 -358.5,-472.07 -535.11,-720.64 275.65,191.88 531.77,380.56 785.14,513.86 222.48,117.05 438.7,164.99 628.12,188.61 169.83,8.36 323.43,6.22 454.89,41.79 123.38,33.39 230.46,112.29 335.14,197.33z"/>
 </g>
</svg>
