<svg xmlns="http://www.w3.org/2000/svg" xmlns:xlink="http://www.w3.org/1999/xlink" version="1.1" width="1400" height="2000">

<rect  cy="0" cx="0" fill="#7151c6" width="550" height="100">
       <animate attributeName="fill" from="blue" to="red" dur="6s" repeatCount="indefinite"/>
</rect>
<circle cy="300" r="70" fill="red">
    <animate attributeName="cx" begin="0s" from="0" to="500" dur="3s" />
    <animate attributeName="cx" begin="3s" from="500" to="0" dur="3s" repeatCount="indefinite"/>
</circle>

    <circle cx="290" cy="60" r="80" fill="gold" stroke-width="4" stroke="green"><animateTransform attributeName="transform" attribute-Type="XML" type="scale" begin="0s" from="1" to="3" dur="2s" fill="freeze"/><animateTransform attributeName="transform" attribute-Type="XML" type="scale" begin="2s" from="3" to="1" dur="2s" fill="freeze"/></circle>
    <circle cx="290" cy="60" r="70" fill="blue" stroke-width="4" stroke="green"><animateTransform attributeName="transform" attribute-Type="XML" type="scale" begin="0s" from="1" to="3" dur="4s" fill="freeze"/><animateTransform attributeName="transform" attribute-Type="XML" type="scale" begin="4s" from="3" to="1" dur="4s" fill="freeze"/></circle>
    <circle cx="290" cy="60" r="60" fill="white" stroke-width="4" stroke="green"><animateTransform attributeName="transform" attribute-Type="XML" type="scale" begin="0s" from="1" to="3" dur="6s" fill="freeze"/><animateTransform attributeName="transform" attribute-Type="XML" type="scale" begin="6s" from="3" to="1" dur="6s" fill="freeze"/></circle>
    <circle cx="290" cy="60" r="50" fill="red" stroke-width="4" stroke="green"><animateTransform attributeName="transform" attribute-Type="XML" type="scale" begin="0s" from="1" to="3" dur="8s" fill="freeze"/><animateTransform attributeName="transform" attribute-Type="XML" type="scale" begin="8s" from="3" to="1" dur="8s" fill="freeze"/></circle>
    <circle cx="290" cy="60" r="40" fill="black" stroke-width="4" stroke="green"><animateTransform attributeName="transform" attribute-Type="XML" type="scale" begin="0s" from="1" to="3" dur="10s" fill="freeze"/><animateTransform attributeName="transform" attribute-Type="XML" type="scale" begin="10s" from="3" to="1" dur="10s" fill="freeze"/></circle>
    <circle cx="290" cy="60" r="30" fill="pink" stroke-width="4" stroke="green"><animateTransform attributeName="transform" attribute-Type="XML" type="scale" begin="0s" from="1" to="3" dur="12s" fill="freeze"/><animateTransform attributeName="transform" attribute-Type="XML" type="scale" begin="12s" from="3" to="1" dur="12s" fill="freeze"/></circle>

<circle cy="600" cx="300" r="70" fill="red">
    <animate attributeName="r" begin="0s" from="70" to="150" dur="3s" />
    <animate attributeName="r" begin="3s" from="150" to="10" dur="3s" repeatCount="indefinite"/>
</circle>

<circle cy="600" cx="600" r="70" stroke="black" stroke-width="1" fill="red">
    <animate attributeName="stroke-width" begin="0s" from="1" to="150" dur="3s" />
    <animate attributeName="stroke-width" begin="3s" from="10" to="10" dur="3s" repeatCount="indefinite"/>
</circle>

<circle cy="900" cx="200" r="40" fill="red" stroke-width="4" stroke="green">
    <animate attributeName="fill" from="blue" to="red" dur="6s" repeatCount="indefinite"/>
    <animate attributeName="stroke" from="green" to="orange" dur="6s" repeatCount="indefinite"/>
    <animate attributeName="cx" begin="0s" from="200" to="500" dur="3s" />
    <animate attributeName="r" begin="3s" from="150" to="10" dur="3s" repeatCount="indefinite"/>
</circle>

<path d="M 20 60 h 260"
    stroke="orangered" stroke-width="5"
    stroke-dasharray="2%" />
<circle cy="900" cx="500" r="40" fill="green" stroke="orangered" stroke-width="5" stroke-dasharray="3%" />


<circle cy="500" cx="100" r="40" stroke-width="4" stroke="orangered" stroke-dashoffset="8%" fill="green">
    <animate attributeName="cx" begin="mousedown" from="100" to="500" dur="3s" />
    <animate attributeName="cy" begin="mousedown" from="500" to="300" dur="3s" />
</circle>

<defs>
    <path id="home" fill="blue" d="M100 59.375l-18.75-18.75v-28.125h-12.5v15.625l-18.75-18.75-50 50v3.125h12.5v31.25h31.25v-18.75h12.5v18.75h31.25v-31.25h12.5z"/>
    <path id="heart" fill="yellow" d="M100 34.976c0 8.434-3.635 16.019-9.423 21.274h0.048l-31.25 31.25c-3.125 3.125-6.25 6.25-9.375 6.25s-6.25-3.125-9.375-6.25l-31.202-31.25c-5.788-5.255-9.423-12.84-9.423-21.274 0-15.865 12.861-28.726 28.726-28.726 8.434 0 16.019 3.635 21.274 9.423 5.255-5.788 12.84-9.423 21.274-9.423 15.865 0 28.726 12.861 28.726 28.726z"/>
    <path id="cog" fill="green" d="M100 59.384v-18.768l-14.333-2.389c-0.582-1.771-1.291-3.483-2.119-5.127l8.443-11.82-13.271-13.271-11.799 8.428c-1.651-0.835-3.373-1.552-5.153-2.139l-2.383-14.298h-18.768l-2.383 14.298c-1.78 0.587-3.502 1.304-5.153 2.139l-11.8-8.428-13.271 13.271 8.443 11.82c-0.827 1.644-1.537 3.356-2.118 5.127l-14.333 2.389v18.768l14.367 2.395c0.582 1.755 1.29 3.452 2.113 5.081l-8.471 11.86 13.271 13.271 11.88-8.486c1.621 0.815 3.31 1.516 5.055 2.093l2.4 14.402h18.768l2.4-14.402c1.746-0.577 3.434-1.278 5.055-2.093l11.88 8.486 13.271-13.271-8.471-11.86c0.823-1.629 1.531-3.326 2.113-5.081l14.367-2.394zM50 62.5c-6.904 0-12.5-5.596-12.5-12.5 0-6.904 5.596-12.5 12.5-12.5 6.904 0 12.5 5.596 12.5 12.5 0 6.904-5.596 12.5-12.5 12.5z"/>
    <path id="camera" fill="pink" d="M29.688 59.375c0 11.218 9.094 20.313 20.313 20.313s20.313-9.094 20.313-20.313-9.094-20.313-20.313-20.313-20.313 9.094-20.313 20.313zM93.75 25h-21.875c-1.563-6.25-3.125-12.5-9.375-12.5h-25c-6.25 0-7.813 6.25-9.375 12.5h-21.875c-3.438 0-6.25 2.813-6.25 6.25v56.25c0 3.438 2.813 6.25 6.25 6.25h87.5c3.438 0 6.25-2.813 6.25-6.25v-56.25c0-3.438-2.813-6.25-6.25-6.25zM50 87.109c-15.317 0-27.734-12.417-27.734-27.734 0-15.317 12.417-27.734 27.734-27.734 15.318 0 27.734 12.417 27.734 27.734 0 15.318-12.417 27.734-27.734 27.734zM93.75 43.75h-12.5v-6.25h12.5v6.25z"/>
    <path id="bubble" fill="orange" d="M50 6.25c27.614 0 50 18.188 50 40.625 0 22.437-22.386 40.625-50 40.625-2.652 0-5.255-0.169-7.795-0.493-10.74 10.74-23.56 12.666-35.955 12.949v-2.629c6.693-3.279 12.5-9.252 12.5-16.078 0-0.953-0.074-1.888-0.211-2.802-11.308-7.448-18.539-18.824-18.539-31.573 0-22.437 22.386-40.625 50-40.625z"/>  
</defs>    
        <circle r="115" cx="735" cy="935"
            stroke="none"
            fill="yellow"
            stroke-width="5"
            stroke-dasharray="30 30">
            <animate attributeName="fill" begin="mousever" from="white" to="blue" dur="10s" />
            <animate attributeName="stroke" begin="mouseover" from="white" to="gold" dur="10s" /> 
            <animate attributeName="stroke-dasharray" begin="mouseover" from="30 30" to="10 10" dur="10s" />   
  
       </circle> 

    <use x="500" y="400" xlink:href="#home" stroke="orange" stroke-dashoffset="3%" stroke-width="3"> 
        <animateTransform attributeName="transform" attribute-Type="XML" type="rotate" begin="0s" from="0 500 400" to="360 500 400" dur="4s" repeatCount="indefinite"/>
    </use >



</svg>